<svg version="1.1" id="Ebene_1" xmlns="http://www.w3.org/2000/svg" xmlns:xlink="http://www.w3.org/1999/xlink" x="0px" y="0px" width="135px" height="55px" viewBox="0 0 135 55" enable-background="new 0 0 135 55" xml:space="preserve">
<g>
	<defs>
		<rect id="SVGID_1_" x="2.048" y="0.999" width="130" height="54.114"/>
	</defs>
	<clipPath id="SVGID_2_">
		<use xlink:href="#SVGID_1_" overflow="visible"/>
	</clipPath>
	<g opacity="0.8" clip-path="url(#SVGID_2_)">
		<g>
			<defs>
				<rect id="SVGID_3_" x="25.266" y="12.313" width="21.357" height="21.354"/>
			</defs>
			<clipPath id="SVGID_4_">
				<use xlink:href="#SVGID_3_" overflow="visible"/>
			</clipPath>
			<g clip-path="url(#SVGID_4_)">
				<defs>
					<rect id="SVGID_5_" x="25.266" y="12.312" width="21.357" height="21.355"/>
				</defs>
				<clipPath id="SVGID_6_">
					<use xlink:href="#SVGID_5_" overflow="visible"/>
				</clipPath>
				<path clip-path="url(#SVGID_6_)" fill="#5C6970" d="M45.822,12.313h-9.878v8.884c0,0.441-0.361,1.16-0.802,1.601l-9.076,9.078      c-0.442,0.441-0.801,0.441-0.801,0v0.993c0,0.441,0.358,0.801,0.801,0.801h19.755c0.439,0,0.801-0.359,0.801-0.801V13.113      C46.623,12.671,46.262,12.313,45.822,12.313"/>
			</g>
		</g>
	</g>
	<path clip-path="url(#SVGID_2_)" fill="#E2001A" d="M35.143,1.441l-9.077,9.077c-0.441,0.442-0.801,1.159-0.801,1.601v0.993v18.761   c0,0.443,0.359,0.443,0.801,0l9.077-9.076c0.439-0.442,0.803-1.16,0.803-1.602v-8.883V1.441C35.945,1,35.582,1,35.143,1.441"/>
	<g opacity="0.6" clip-path="url(#SVGID_2_)">
		<g>
			<defs>
				<rect id="SVGID_7_" x="25.266" y="12.313" width="10.679" height="19.893"/>
			</defs>
			<clipPath id="SVGID_8_">
				<use xlink:href="#SVGID_7_" overflow="visible"/>
			</clipPath>
			<g clip-path="url(#SVGID_8_)">
				<defs>
					<rect id="SVGID_9_" x="25.266" y="12.312" width="10.679" height="19.894"/>
				</defs>
				<clipPath id="SVGID_10_">
					<use xlink:href="#SVGID_9_" overflow="visible"/>
				</clipPath>
				<path clip-path="url(#SVGID_10_)" fill="#5C6970" d="M26.067,31.874l9.076-9.077c0.44-0.441,0.803-1.16,0.803-1.601v-8.884      h-9.878c-0.442,0-0.801,0.359-0.801,0.8v18.762C25.266,32.316,25.625,32.316,26.067,31.874"/>
			</g>
		</g>
	</g>
	<g opacity="0.8" clip-path="url(#SVGID_2_)">
		<g>
			<defs>
				<rect id="SVGID_11_" x="12.729" y="32.868" width="10.676" height="11.886"/>
			</defs>
			<clipPath id="SVGID_12_">
				<use xlink:href="#SVGID_11_" overflow="visible"/>
			</clipPath>
			<g clip-path="url(#SVGID_12_)">
				<defs>
					<rect id="SVGID_13_" x="12.729" y="32.868" width="10.676" height="11.886"/>
				</defs>
				<clipPath id="SVGID_14_">
					<use xlink:href="#SVGID_13_" overflow="visible"/>
				</clipPath>
				<path clip-path="url(#SVGID_14_)" fill="#5C6970" d="M22.603,33.668h-9.875v10.757c0,0.44,0.358,0.44,0.801,0l9.075-9.078      c0.441-0.442,0.803-1.157,0.803-1.603v-0.877C23.406,33.311,23.044,33.668,22.603,33.668"/>
			</g>
		</g>
	</g>
	<path clip-path="url(#SVGID_2_)" fill="#E2001A" d="M22.603,12.313H2.849c-0.443,0-0.801,0.358-0.801,0.8v19.755   c0,0.441,0.357,0.801,0.801,0.801h19.754c0.441,0,0.803-0.359,0.803-0.801V13.113C23.406,12.671,23.044,12.313,22.603,12.313"/>
	<g opacity="0.6" clip-path="url(#SVGID_2_)">
		<g>
			<defs>
				<rect id="SVGID_15_" x="12.729" y="13.659" width="10.676" height="20.008"/>
			</defs>
			<clipPath id="SVGID_16_">
				<use xlink:href="#SVGID_15_" overflow="visible"/>
			</clipPath>
			<g clip-path="url(#SVGID_16_)">
				<defs>
					<rect id="SVGID_17_" x="12.729" y="13.66" width="10.676" height="20.007"/>
				</defs>
				<clipPath id="SVGID_18_">
					<use xlink:href="#SVGID_17_" overflow="visible"/>
				</clipPath>
				<path clip-path="url(#SVGID_18_)" fill="#5C6970" d="M22.603,13.992l-9.075,9.075c-0.443,0.443-0.801,1.16-0.801,1.6v9.002      h9.875c0.441,0,0.803-0.358,0.803-0.802V13.992C23.406,13.549,23.044,13.55,22.603,13.992"/>
			</g>
		</g>
	</g>
	<path clip-path="url(#SVGID_2_)" fill="#5C6970" d="M60.536,51.677c0,0.247-0.05,0.465-0.147,0.66   c-0.097,0.195-0.232,0.357-0.402,0.49c-0.17,0.135-0.368,0.235-0.596,0.305c-0.227,0.07-0.469,0.105-0.723,0.105h-1.381v-5.416   h1.479c0.211,0,0.415,0.026,0.613,0.083c0.199,0.053,0.372,0.135,0.52,0.245c0.149,0.112,0.268,0.253,0.357,0.424   c0.089,0.171,0.134,0.371,0.134,0.604c0,0.146-0.032,0.285-0.097,0.418c-0.065,0.132-0.147,0.252-0.244,0.358   c-0.097,0.104-0.205,0.193-0.321,0.268c-0.117,0.073-0.228,0.125-0.337,0.159c0.152,0.025,0.297,0.076,0.435,0.148   c0.138,0.074,0.26,0.167,0.364,0.28c0.107,0.113,0.19,0.245,0.252,0.394C60.504,51.354,60.536,51.511,60.536,51.677 M59.789,49.202   c0-0.277-0.096-0.495-0.285-0.658c-0.19-0.162-0.437-0.243-0.739-0.243H57.88v1.875h0.862c0.134,0,0.264-0.024,0.389-0.072   c0.124-0.049,0.236-0.117,0.333-0.203c0.098-0.086,0.176-0.189,0.236-0.309C59.759,49.473,59.789,49.342,59.789,49.202    M59.918,51.654c0-0.313-0.107-0.563-0.321-0.743c-0.213-0.181-0.491-0.272-0.832-0.272H57.88v2.121h0.885   c0.157,0,0.306-0.028,0.446-0.082c0.141-0.053,0.265-0.129,0.37-0.229c0.106-0.097,0.188-0.213,0.248-0.348   C59.888,51.967,59.918,51.817,59.918,51.654"/>
	<path clip-path="url(#SVGID_2_)" fill="#5C6970" d="M63.638,53.237v-0.576c-0.017,0.033-0.056,0.086-0.117,0.162   c-0.063,0.078-0.146,0.152-0.248,0.229c-0.104,0.075-0.22,0.143-0.354,0.199c-0.132,0.058-0.274,0.084-0.426,0.084   c-0.356,0-0.65-0.1-0.881-0.3c-0.229-0.201-0.345-0.48-0.345-0.844c0-0.174,0.05-0.334,0.15-0.479   c0.101-0.147,0.227-0.274,0.383-0.383c0.154-0.109,0.321-0.199,0.503-0.275c0.181-0.076,0.35-0.132,0.507-0.163l0.796-0.178v-0.27   c0-0.265-0.072-0.489-0.215-0.67c-0.144-0.181-0.361-0.271-0.654-0.271c-0.086,0-0.183,0.015-0.293,0.049   c-0.109,0.031-0.21,0.067-0.308,0.108c-0.098,0.039-0.186,0.08-0.264,0.121c-0.079,0.041-0.129,0.07-0.15,0.086l-0.17-0.438   c0.021-0.017,0.072-0.044,0.153-0.081c0.083-0.038,0.18-0.079,0.293-0.122c0.113-0.043,0.24-0.082,0.377-0.113   c0.139-0.032,0.278-0.049,0.419-0.049c0.411,0,0.74,0.114,0.987,0.345c0.246,0.229,0.369,0.568,0.369,1.011v2.817H63.638z    M63.605,51.126l-0.683,0.146c-0.113,0.028-0.235,0.068-0.364,0.123c-0.13,0.054-0.248,0.119-0.354,0.193   c-0.106,0.075-0.193,0.163-0.265,0.261c-0.07,0.097-0.105,0.203-0.105,0.316c0,0.228,0.069,0.406,0.207,0.536   c0.139,0.129,0.309,0.195,0.509,0.195c0.124,0,0.244-0.026,0.36-0.078c0.117-0.05,0.224-0.116,0.317-0.194   c0.095-0.079,0.174-0.163,0.24-0.252c0.065-0.09,0.111-0.174,0.138-0.256V51.126z"/>
	<path clip-path="url(#SVGID_2_)" fill="#5C6970" d="M67.836,53.237v-0.575c-0.017,0.033-0.054,0.086-0.114,0.162   c-0.059,0.077-0.136,0.151-0.231,0.227c-0.094,0.076-0.201,0.144-0.316,0.2c-0.118,0.057-0.234,0.084-0.354,0.084   c-0.282,0-0.521-0.065-0.715-0.198c-0.195-0.133-0.354-0.306-0.479-0.52c-0.125-0.214-0.215-0.454-0.271-0.723   c-0.058-0.27-0.085-0.534-0.085-0.801c0-0.243,0.035-0.485,0.108-0.726c0.074-0.242,0.177-0.46,0.313-0.655   c0.135-0.193,0.298-0.351,0.491-0.471c0.192-0.119,0.405-0.177,0.638-0.177c0.124,0,0.243,0.026,0.354,0.08   c0.11,0.054,0.209,0.117,0.295,0.19c0.086,0.073,0.159,0.146,0.216,0.221c0.056,0.071,0.096,0.131,0.117,0.174v-2.249h0.561v5.756   H67.836z M67.803,50.347c-0.011-0.043-0.041-0.108-0.089-0.199c-0.049-0.088-0.113-0.18-0.194-0.271   c-0.081-0.093-0.177-0.174-0.285-0.244c-0.109-0.069-0.227-0.104-0.357-0.104c-0.158,0-0.297,0.041-0.422,0.121   c-0.125,0.082-0.232,0.193-0.322,0.337c-0.088,0.144-0.157,0.311-0.207,0.499c-0.048,0.19-0.072,0.393-0.072,0.609   c0,0.19,0.018,0.392,0.053,0.601c0.035,0.212,0.093,0.404,0.174,0.578c0.081,0.172,0.187,0.316,0.317,0.431   c0.13,0.113,0.29,0.171,0.479,0.171c0.119,0,0.234-0.035,0.345-0.099c0.111-0.065,0.207-0.142,0.288-0.228   c0.083-0.087,0.148-0.173,0.2-0.257c0.051-0.083,0.083-0.146,0.093-0.189V50.347z"/>
	<path clip-path="url(#SVGID_2_)" fill="#5C6970" d="M69.939,51.296c0,0.163,0.021,0.337,0.061,0.522   c0.041,0.183,0.104,0.354,0.19,0.514c0.087,0.162,0.197,0.293,0.334,0.398c0.135,0.104,0.298,0.158,0.485,0.158   c0.115,0,0.228-0.012,0.337-0.037c0.111-0.023,0.216-0.053,0.31-0.084c0.095-0.033,0.178-0.066,0.249-0.103   c0.068-0.035,0.126-0.066,0.17-0.093l0.171,0.471c-0.034,0.017-0.089,0.041-0.167,0.073c-0.078,0.033-0.174,0.064-0.284,0.097   c-0.112,0.033-0.235,0.063-0.374,0.086c-0.138,0.025-0.283,0.036-0.435,0.036c-0.319,0-0.581-0.068-0.787-0.207   c-0.205-0.137-0.37-0.315-0.491-0.535c-0.122-0.22-0.208-0.46-0.257-0.723c-0.049-0.264-0.073-0.521-0.073-0.776   c0-0.2,0.033-0.419,0.099-0.656c0.064-0.239,0.16-0.46,0.288-0.662c0.127-0.204,0.283-0.373,0.471-0.509   c0.187-0.135,0.403-0.201,0.652-0.201c0.277,0,0.51,0.063,0.7,0.193c0.189,0.131,0.342,0.296,0.458,0.494   c0.117,0.202,0.201,0.421,0.253,0.658c0.05,0.24,0.076,0.466,0.076,0.683v0.202H69.939z M71.778,50.468   c-0.035-0.161-0.089-0.313-0.162-0.453c-0.073-0.142-0.17-0.262-0.289-0.361c-0.119-0.101-0.263-0.15-0.43-0.15   c-0.157,0-0.295,0.048-0.414,0.142c-0.119,0.095-0.218,0.214-0.293,0.354c-0.075,0.142-0.134,0.291-0.174,0.45   c-0.04,0.16-0.062,0.308-0.062,0.443h1.875C71.83,50.772,71.813,50.631,71.778,50.468"/>
	<path clip-path="url(#SVGID_2_)" fill="#5C6970" d="M75.899,53.237v-2.735c0-0.109-0.019-0.221-0.053-0.337   c-0.035-0.118-0.084-0.223-0.15-0.317c-0.065-0.095-0.148-0.173-0.247-0.23c-0.1-0.061-0.216-0.09-0.345-0.09   c-0.125,0-0.245,0.029-0.362,0.09c-0.116,0.058-0.22,0.131-0.308,0.216c-0.09,0.082-0.162,0.168-0.22,0.253   c-0.057,0.088-0.089,0.158-0.094,0.212v2.939h-0.56v-4.076h0.535v0.568c0.011-0.026,0.046-0.077,0.106-0.149   c0.06-0.073,0.137-0.147,0.235-0.224c0.097-0.076,0.208-0.144,0.333-0.203c0.123-0.06,0.257-0.088,0.396-0.088   c0.218,0,0.407,0.038,0.569,0.116s0.297,0.183,0.402,0.313c0.105,0.131,0.185,0.276,0.239,0.443   c0.054,0.164,0.081,0.331,0.081,0.499v2.801H75.899z"/>
	<rect x="77.687" y="50.517" clip-path="url(#SVGID_2_)" fill="#5C6970" width="1.705" height="0.504"/>
	<polygon clip-path="url(#SVGID_2_)" fill="#5C6970" points="85.052,53.237 84.394,53.237 83.225,48.561 82.07,53.237    81.404,53.237 80.154,47.821 80.781,47.821 81.763,52.5 82.916,47.821 83.572,47.821 84.735,52.5 85.709,47.821 86.303,47.821  "/>
	<path clip-path="url(#SVGID_2_)" fill="#5C6970" d="M89.517,53.237v-0.575c-0.015,0.026-0.052,0.077-0.108,0.153   c-0.058,0.076-0.131,0.15-0.224,0.229c-0.092,0.076-0.198,0.142-0.32,0.203c-0.122,0.059-0.256,0.089-0.401,0.089   c-0.223,0-0.413-0.039-0.574-0.12c-0.159-0.077-0.291-0.18-0.394-0.307c-0.103-0.128-0.178-0.276-0.228-0.443   c-0.049-0.168-0.072-0.34-0.072-0.52v-2.785h0.561v2.736c0,0.125,0.015,0.245,0.045,0.362c0.029,0.116,0.074,0.219,0.132,0.308   c0.062,0.091,0.141,0.162,0.237,0.22c0.096,0.056,0.216,0.087,0.357,0.087c0.13,0,0.252-0.034,0.365-0.104   c0.114-0.067,0.213-0.144,0.3-0.229c0.087-0.087,0.156-0.175,0.207-0.262c0.052-0.086,0.08-0.146,0.086-0.178v-2.94h0.561v4.076   H89.517z M88.307,48.057c0,0.104-0.036,0.189-0.108,0.265c-0.072,0.073-0.163,0.108-0.272,0.108c-0.107,0-0.198-0.035-0.268-0.108   c-0.071-0.075-0.105-0.161-0.105-0.265s0.034-0.189,0.105-0.264c0.069-0.073,0.16-0.109,0.268-0.109c0.109,0,0.2,0.036,0.272,0.109   C88.271,47.867,88.307,47.953,88.307,48.057 M89.705,48.057c0,0.104-0.036,0.189-0.109,0.265c-0.075,0.073-0.164,0.108-0.272,0.108   s-0.198-0.035-0.268-0.108c-0.07-0.075-0.105-0.161-0.105-0.265s0.035-0.189,0.105-0.264c0.069-0.073,0.159-0.109,0.268-0.109   s0.197,0.036,0.272,0.109C89.669,47.867,89.705,47.953,89.705,48.057"/>
	<path clip-path="url(#SVGID_2_)" fill="#5C6970" d="M93.092,49.696c-0.033-0.016-0.082-0.038-0.147-0.067   c-0.064-0.03-0.122-0.045-0.17-0.045c-0.107,0-0.212,0.03-0.309,0.093c-0.098,0.063-0.185,0.134-0.26,0.216   c-0.076,0.08-0.138,0.16-0.183,0.239c-0.046,0.079-0.075,0.137-0.085,0.174v2.932h-0.561v-4.076h0.536v0.568   c0.011-0.021,0.039-0.067,0.085-0.142c0.046-0.073,0.109-0.149,0.19-0.229c0.082-0.077,0.177-0.146,0.289-0.206   c0.11-0.06,0.237-0.089,0.378-0.089c0.069,0,0.146,0.015,0.231,0.04c0.084,0.027,0.142,0.055,0.174,0.081L93.092,49.696z"/>
	<path clip-path="url(#SVGID_2_)" fill="#5C6970" d="M95.933,53.251c-0.048,0.013-0.103,0.024-0.161,0.036   c-0.061,0.011-0.124,0.021-0.192,0.032c-0.067,0.011-0.128,0.016-0.181,0.016c-0.163,0-0.3-0.022-0.411-0.071   c-0.111-0.051-0.201-0.118-0.269-0.202c-0.066-0.082-0.115-0.178-0.145-0.288c-0.031-0.106-0.046-0.217-0.046-0.332v-2.816h-0.682   v-0.464h0.682v-1.104h0.561v1.104h0.804v0.464h-0.804v2.761c0,0.113,0.025,0.222,0.076,0.328c0.053,0.105,0.14,0.159,0.265,0.159   c0.076,0,0.16-0.018,0.252-0.046c0.093-0.029,0.153-0.056,0.187-0.076l0.169,0.462C96.017,53.226,95.981,53.236,95.933,53.251"/>
	<path clip-path="url(#SVGID_2_)" fill="#5C6970" d="M98.702,53.251c-0.048,0.013-0.104,0.024-0.161,0.036   c-0.062,0.011-0.123,0.021-0.193,0.032c-0.066,0.011-0.127,0.016-0.181,0.016c-0.163,0-0.3-0.022-0.41-0.071   c-0.111-0.051-0.202-0.118-0.269-0.202c-0.067-0.082-0.116-0.178-0.146-0.288c-0.03-0.106-0.045-0.217-0.045-0.332v-2.816h-0.682   v-0.464h0.682v-1.104h0.56v1.104h0.805v0.464h-0.805v2.761c0,0.113,0.026,0.222,0.077,0.328c0.052,0.105,0.141,0.159,0.265,0.159   c0.075,0,0.159-0.018,0.252-0.046c0.092-0.029,0.153-0.056,0.187-0.076l0.17,0.462C98.787,53.226,98.751,53.236,98.702,53.251"/>
	<path clip-path="url(#SVGID_2_)" fill="#5C6970" d="M100.123,51.296c0,0.163,0.021,0.337,0.062,0.522   c0.04,0.183,0.104,0.354,0.191,0.514c0.086,0.162,0.196,0.293,0.333,0.398c0.135,0.104,0.297,0.158,0.486,0.158   c0.114,0,0.226-0.012,0.337-0.037c0.111-0.023,0.214-0.053,0.309-0.084c0.096-0.033,0.178-0.066,0.248-0.103   c0.069-0.035,0.127-0.066,0.171-0.093l0.17,0.471c-0.032,0.017-0.088,0.041-0.166,0.073c-0.079,0.033-0.174,0.064-0.284,0.097   c-0.112,0.033-0.236,0.063-0.374,0.086c-0.138,0.025-0.283,0.036-0.435,0.036c-0.319,0-0.582-0.068-0.787-0.207   c-0.206-0.137-0.37-0.315-0.492-0.535s-0.207-0.46-0.255-0.723c-0.049-0.264-0.074-0.521-0.074-0.776   c0-0.2,0.034-0.419,0.099-0.656c0.064-0.239,0.159-0.46,0.288-0.662c0.127-0.204,0.282-0.373,0.472-0.509   c0.185-0.135,0.402-0.201,0.652-0.201c0.276,0,0.509,0.063,0.698,0.193c0.19,0.131,0.342,0.296,0.459,0.494   c0.117,0.202,0.201,0.421,0.252,0.658c0.05,0.24,0.077,0.466,0.077,0.683v0.202H100.123z M101.964,50.468   c-0.035-0.161-0.09-0.313-0.163-0.453c-0.073-0.142-0.17-0.262-0.288-0.361c-0.12-0.101-0.264-0.15-0.431-0.15   c-0.157,0-0.295,0.048-0.415,0.142c-0.119,0.095-0.216,0.214-0.291,0.354c-0.077,0.142-0.135,0.291-0.175,0.45   c-0.041,0.16-0.062,0.308-0.062,0.443h1.876C102.016,50.772,101.998,50.631,101.964,50.468"/>
	<path clip-path="url(#SVGID_2_)" fill="#5C6970" d="M108.18,53.237v-2.735c0-0.12-0.015-0.237-0.04-0.354   c-0.027-0.115-0.069-0.22-0.126-0.312c-0.06-0.092-0.135-0.167-0.232-0.223c-0.097-0.058-0.214-0.086-0.349-0.086   c-0.142,0-0.268,0.024-0.378,0.076c-0.111,0.053-0.206,0.114-0.284,0.188c-0.078,0.072-0.143,0.15-0.19,0.229   c-0.05,0.082-0.075,0.152-0.081,0.213v3.003h-0.561v-2.735c0-0.12-0.013-0.237-0.037-0.354c-0.023-0.115-0.064-0.22-0.122-0.312   c-0.056-0.092-0.133-0.167-0.227-0.223c-0.096-0.058-0.215-0.086-0.362-0.086c-0.129,0-0.25,0.029-0.36,0.09   c-0.111,0.058-0.207,0.131-0.289,0.216c-0.081,0.082-0.146,0.168-0.194,0.253c-0.049,0.088-0.078,0.158-0.09,0.212v2.939h-0.562   v-4.076h0.537v0.568c0.017-0.022,0.049-0.067,0.103-0.143c0.051-0.072,0.118-0.148,0.201-0.227c0.085-0.078,0.188-0.147,0.31-0.207   c0.122-0.06,0.259-0.088,0.41-0.088c0.201,0,0.367,0.026,0.5,0.079c0.132,0.056,0.241,0.118,0.328,0.191   c0.087,0.074,0.152,0.146,0.194,0.22c0.043,0.072,0.076,0.131,0.099,0.174c0.016-0.026,0.053-0.077,0.11-0.149   c0.057-0.073,0.131-0.147,0.227-0.224c0.094-0.076,0.208-0.144,0.341-0.203s0.28-0.088,0.441-0.088c0.234,0,0.43,0.038,0.591,0.116   c0.157,0.078,0.286,0.183,0.386,0.313c0.097,0.131,0.166,0.276,0.206,0.443c0.04,0.164,0.061,0.331,0.061,0.499v2.801H108.18z"/>
	<path clip-path="url(#SVGID_2_)" fill="#5C6970" d="M113.215,51.094c0,0.267-0.039,0.53-0.113,0.796   c-0.076,0.266-0.191,0.506-0.342,0.72c-0.152,0.213-0.338,0.388-0.563,0.522c-0.22,0.137-0.478,0.203-0.771,0.203   c-0.08,0-0.185-0.007-0.311-0.019c-0.129-0.015-0.258-0.031-0.387-0.054c-0.131-0.021-0.252-0.044-0.365-0.064   c-0.114-0.022-0.195-0.039-0.244-0.049v-5.668h0.561v2.249c0.015-0.035,0.053-0.086,0.11-0.16c0.057-0.071,0.129-0.146,0.219-0.222   c0.089-0.076,0.19-0.143,0.303-0.199c0.114-0.058,0.234-0.084,0.359-0.084c0.275,0,0.511,0.062,0.706,0.188   c0.193,0.127,0.354,0.289,0.479,0.482c0.125,0.196,0.215,0.415,0.272,0.656C113.186,50.633,113.215,50.866,113.215,51.094    M112.63,51.094c0-0.179-0.021-0.36-0.063-0.548c-0.041-0.187-0.102-0.354-0.186-0.508c-0.083-0.151-0.19-0.274-0.317-0.369   c-0.126-0.095-0.279-0.142-0.459-0.142c-0.107,0-0.214,0.033-0.319,0.097c-0.105,0.065-0.202,0.14-0.289,0.225   c-0.087,0.084-0.159,0.168-0.22,0.256c-0.059,0.087-0.092,0.15-0.097,0.193v2.478c0.022,0.01,0.063,0.021,0.126,0.032   c0.063,0.011,0.13,0.019,0.203,0.027c0.072,0.008,0.146,0.017,0.223,0.026c0.076,0.009,0.142,0.012,0.194,0.012   c0.19,0,0.359-0.057,0.509-0.172c0.148-0.112,0.274-0.257,0.377-0.429c0.104-0.174,0.182-0.366,0.236-0.578   C112.602,51.485,112.63,51.283,112.63,51.094"/>
	<path clip-path="url(#SVGID_2_)" fill="#5C6970" d="M114.619,51.296c0,0.163,0.021,0.337,0.061,0.522   c0.041,0.183,0.104,0.354,0.19,0.514c0.088,0.162,0.198,0.293,0.334,0.398c0.136,0.104,0.298,0.158,0.485,0.158   c0.115,0,0.228-0.012,0.337-0.037c0.112-0.023,0.216-0.053,0.31-0.084c0.095-0.033,0.179-0.066,0.249-0.103   c0.068-0.035,0.126-0.066,0.17-0.093l0.171,0.471c-0.033,0.017-0.089,0.041-0.167,0.073c-0.078,0.033-0.174,0.064-0.283,0.097   c-0.113,0.033-0.236,0.063-0.374,0.086c-0.139,0.025-0.284,0.036-0.436,0.036c-0.318,0-0.581-0.068-0.787-0.207   c-0.205-0.137-0.37-0.315-0.491-0.535c-0.122-0.22-0.207-0.46-0.257-0.723c-0.049-0.264-0.073-0.521-0.073-0.776   c0-0.2,0.033-0.419,0.099-0.656c0.065-0.239,0.16-0.46,0.288-0.662c0.128-0.204,0.283-0.373,0.471-0.509   c0.187-0.135,0.403-0.201,0.652-0.201c0.277,0,0.51,0.063,0.7,0.193c0.189,0.131,0.342,0.296,0.458,0.494   c0.117,0.202,0.201,0.421,0.253,0.658c0.05,0.24,0.076,0.466,0.076,0.683v0.202H114.619z M116.458,50.468   c-0.035-0.161-0.089-0.313-0.162-0.453c-0.073-0.142-0.169-0.262-0.289-0.361c-0.119-0.101-0.262-0.15-0.43-0.15   c-0.157,0-0.295,0.048-0.414,0.142c-0.119,0.095-0.217,0.214-0.293,0.354c-0.075,0.142-0.134,0.291-0.174,0.45   c-0.04,0.16-0.062,0.308-0.062,0.443h1.876C116.511,50.772,116.493,50.631,116.458,50.468"/>
	<path clip-path="url(#SVGID_2_)" fill="#5C6970" d="M119.905,49.696c-0.032-0.016-0.08-0.038-0.146-0.067   c-0.064-0.03-0.122-0.045-0.169-0.045c-0.109,0-0.212,0.03-0.309,0.093c-0.099,0.063-0.186,0.134-0.261,0.216   c-0.076,0.08-0.138,0.16-0.182,0.239c-0.047,0.079-0.076,0.137-0.087,0.174v2.932h-0.56v-4.076h0.536v0.568   c0.01-0.021,0.039-0.067,0.085-0.142c0.047-0.073,0.109-0.149,0.191-0.229c0.08-0.077,0.176-0.146,0.288-0.206   c0.111-0.06,0.236-0.089,0.378-0.089c0.07,0,0.146,0.015,0.23,0.04c0.085,0.027,0.144,0.055,0.175,0.081L119.905,49.696z"/>
	<path clip-path="url(#SVGID_2_)" fill="#5C6970" d="M123.194,49.561c0.022,0.026,0.052,0.066,0.09,0.121   c0.037,0.055,0.073,0.12,0.109,0.198c0.035,0.079,0.066,0.167,0.093,0.268c0.028,0.102,0.041,0.208,0.041,0.32   c0,0.207-0.034,0.399-0.104,0.582c-0.071,0.181-0.169,0.34-0.293,0.475c-0.125,0.135-0.274,0.243-0.446,0.32   c-0.174,0.078-0.36,0.118-0.562,0.118c-0.06,0-0.122,0.012-0.189,0.032c-0.068,0.022-0.132,0.049-0.191,0.081   c-0.06,0.034-0.109,0.073-0.149,0.118c-0.041,0.047-0.062,0.093-0.062,0.142c0,0.119,0.056,0.218,0.166,0.293   s0.254,0.114,0.426,0.114c0.224,0,0.437,0.026,0.643,0.077c0.205,0.051,0.387,0.128,0.544,0.227   c0.157,0.101,0.281,0.223,0.374,0.367c0.091,0.142,0.137,0.306,0.137,0.489c0,0.142-0.04,0.281-0.122,0.423   c-0.08,0.141-0.194,0.271-0.344,0.389c-0.149,0.12-0.329,0.216-0.537,0.289c-0.209,0.074-0.439,0.109-0.694,0.109   c-0.228,0-0.438-0.029-0.637-0.088c-0.197-0.061-0.366-0.14-0.509-0.241c-0.139-0.101-0.251-0.219-0.333-0.356   c-0.081-0.138-0.122-0.288-0.122-0.451c0-0.155,0.043-0.296,0.127-0.419c0.085-0.12,0.184-0.223,0.297-0.303   c0.112-0.083,0.23-0.145,0.349-0.191c0.119-0.045,0.218-0.07,0.294-0.076c-0.039-0.006-0.09-0.021-0.155-0.045   c-0.064-0.024-0.129-0.059-0.19-0.104c-0.063-0.043-0.116-0.099-0.163-0.17c-0.046-0.07-0.069-0.153-0.069-0.251   c0-0.065,0.021-0.129,0.064-0.19c0.045-0.063,0.097-0.117,0.154-0.167c0.061-0.05,0.122-0.09,0.184-0.121   c0.063-0.033,0.114-0.056,0.157-0.065c-0.074-0.027-0.161-0.072-0.259-0.134c-0.097-0.063-0.19-0.15-0.28-0.261   s-0.163-0.249-0.223-0.413c-0.06-0.165-0.089-0.365-0.089-0.599c0-0.172,0.036-0.343,0.109-0.511c0.071-0.168,0.172-0.318,0.3-0.45   c0.127-0.134,0.275-0.24,0.447-0.32c0.17-0.082,0.354-0.121,0.547-0.121c0.126,0,0.243,0.011,0.354,0.035   c0.11,0.024,0.19,0.045,0.239,0.061h1.153v0.399H123.194z M123.252,53.903c0-0.209-0.107-0.386-0.321-0.523   c-0.213-0.139-0.484-0.208-0.809-0.208c-0.136,0-0.268,0.021-0.395,0.058c-0.126,0.04-0.237,0.091-0.336,0.154   c-0.098,0.065-0.176,0.144-0.234,0.231c-0.061,0.091-0.092,0.186-0.092,0.288s0.027,0.202,0.078,0.298   c0.053,0.093,0.123,0.177,0.216,0.251c0.092,0.074,0.202,0.131,0.332,0.175c0.131,0.043,0.274,0.065,0.431,0.065   c0.163,0,0.312-0.024,0.446-0.069c0.137-0.046,0.256-0.105,0.358-0.179s0.182-0.157,0.239-0.251   C123.223,54.098,123.252,54,123.252,53.903 M122.959,50.468c0-0.298-0.074-0.535-0.224-0.719c-0.148-0.179-0.353-0.271-0.613-0.271   c-0.129,0-0.246,0.026-0.354,0.082c-0.104,0.053-0.192,0.127-0.263,0.218c-0.072,0.093-0.125,0.199-0.163,0.316   c-0.037,0.119-0.057,0.244-0.057,0.373c0,0.147,0.016,0.286,0.045,0.42c0.028,0.134,0.077,0.246,0.142,0.345   c0.066,0.098,0.15,0.175,0.255,0.23c0.106,0.058,0.238,0.086,0.395,0.086c0.152,0,0.28-0.032,0.386-0.101   c0.104-0.068,0.193-0.154,0.261-0.257s0.116-0.217,0.146-0.345C122.943,50.719,122.959,50.594,122.959,50.468"/>
	<path clip-path="url(#SVGID_2_)" fill="#5C6970" d="M60.925,41.494c0,0.395-0.06,0.765-0.178,1.107   c-0.118,0.345-0.283,0.643-0.491,0.897s-0.457,0.454-0.743,0.603c-0.287,0.146-0.597,0.218-0.933,0.218h-1.292v-5.416h1.177   c0.347,0,0.671,0.06,0.97,0.18c0.301,0.117,0.563,0.289,0.784,0.511c0.222,0.223,0.395,0.493,0.519,0.812   C60.862,40.725,60.925,41.088,60.925,41.494 M60.316,41.494c0-0.331-0.048-0.626-0.146-0.885c-0.098-0.261-0.228-0.481-0.391-0.662   c-0.161-0.183-0.35-0.32-0.564-0.419c-0.213-0.097-0.438-0.146-0.669-0.146H57.88v4.459h0.691c0.242,0,0.471-0.062,0.685-0.183   c0.214-0.122,0.399-0.288,0.556-0.5c0.157-0.211,0.28-0.459,0.369-0.743C60.272,42.132,60.316,41.824,60.316,41.494"/>
	<path clip-path="url(#SVGID_2_)" fill="#5C6970" d="M64.214,44.319v-0.576c-0.017,0.027-0.053,0.079-0.109,0.153   c-0.057,0.076-0.131,0.152-0.223,0.229c-0.092,0.075-0.199,0.144-0.321,0.203c-0.122,0.059-0.255,0.091-0.401,0.091   c-0.222,0-0.413-0.04-0.573-0.12c-0.16-0.078-0.292-0.181-0.395-0.309c-0.103-0.127-0.178-0.274-0.227-0.443   c-0.048-0.168-0.073-0.339-0.073-0.519v-2.784h0.56v2.736c0,0.123,0.015,0.244,0.045,0.359c0.028,0.119,0.074,0.22,0.133,0.311   c0.06,0.089,0.138,0.162,0.236,0.22c0.097,0.055,0.217,0.084,0.357,0.084c0.13,0,0.251-0.033,0.365-0.102   c0.115-0.066,0.214-0.145,0.301-0.231c0.086-0.086,0.155-0.173,0.208-0.26c0.051-0.086,0.079-0.147,0.085-0.179v-2.938h0.559v4.075   H64.214z"/>
	<path clip-path="url(#SVGID_2_)" fill="#5C6970" d="M68.21,44.318v-0.575c-0.017,0.033-0.056,0.087-0.117,0.162   c-0.063,0.076-0.146,0.153-0.248,0.228c-0.104,0.075-0.22,0.143-0.354,0.198c-0.132,0.058-0.274,0.087-0.426,0.087   c-0.356,0-0.65-0.1-0.881-0.302c-0.229-0.2-0.345-0.48-0.345-0.843c0-0.175,0.05-0.333,0.149-0.481   c0.101-0.144,0.228-0.271,0.383-0.381c0.154-0.107,0.321-0.2,0.503-0.275c0.181-0.075,0.35-0.13,0.507-0.163l0.796-0.179v-0.269   c0-0.264-0.072-0.487-0.215-0.67c-0.144-0.181-0.361-0.271-0.654-0.271c-0.086,0-0.183,0.017-0.292,0.05   c-0.109,0.032-0.21,0.068-0.308,0.108c-0.098,0.041-0.186,0.081-0.264,0.121c-0.08,0.041-0.129,0.069-0.15,0.087l-0.17-0.438   c0.021-0.017,0.072-0.045,0.153-0.082c0.082-0.037,0.18-0.078,0.293-0.121c0.113-0.043,0.24-0.082,0.376-0.113   c0.139-0.034,0.278-0.05,0.419-0.05c0.411,0,0.74,0.116,0.986,0.345c0.246,0.231,0.369,0.568,0.369,1.012v2.816H68.21z    M68.178,42.209l-0.684,0.146c-0.112,0.027-0.235,0.067-0.364,0.121c-0.13,0.055-0.248,0.12-0.353,0.195   c-0.106,0.076-0.193,0.162-0.265,0.262c-0.07,0.096-0.105,0.201-0.105,0.314c0,0.229,0.069,0.407,0.207,0.536   c0.139,0.131,0.308,0.196,0.509,0.196c0.124,0,0.244-0.026,0.36-0.078c0.117-0.051,0.222-0.116,0.317-0.194   c0.095-0.079,0.174-0.163,0.239-0.253c0.065-0.088,0.111-0.174,0.139-0.255V42.209z"/>
	<path clip-path="url(#SVGID_2_)" fill="#5C6970" d="M71.224,44.376c-0.099,0.028-0.189,0.042-0.27,0.042   c-0.162,0-0.296-0.027-0.397-0.083c-0.104-0.053-0.186-0.125-0.248-0.214c-0.063-0.089-0.106-0.194-0.129-0.312   c-0.025-0.121-0.037-0.247-0.037-0.374v-4.874h0.559v4.825c0,0.168,0.023,0.302,0.067,0.405c0.043,0.104,0.116,0.153,0.219,0.153   c0.038,0,0.086-0.013,0.146-0.04c0.06-0.026,0.1-0.053,0.121-0.081l0.17,0.471C71.388,44.321,71.32,44.35,71.224,44.376"/>
	<path clip-path="url(#SVGID_2_)" fill="#5C6970" d="M72.685,42.379c0,0.163,0.021,0.335,0.061,0.521   c0.041,0.183,0.104,0.355,0.19,0.515c0.088,0.16,0.198,0.293,0.334,0.399c0.136,0.104,0.298,0.157,0.485,0.157   c0.115,0,0.228-0.013,0.337-0.037c0.112-0.024,0.216-0.053,0.31-0.085c0.095-0.031,0.179-0.064,0.249-0.102   c0.068-0.034,0.126-0.065,0.17-0.092l0.171,0.47c-0.033,0.017-0.089,0.04-0.167,0.074c-0.078,0.031-0.174,0.063-0.284,0.096   c-0.111,0.033-0.235,0.063-0.373,0.085c-0.139,0.025-0.284,0.038-0.436,0.038c-0.318,0-0.581-0.07-0.787-0.208   c-0.205-0.138-0.37-0.316-0.491-0.536c-0.122-0.22-0.207-0.461-0.257-0.723c-0.049-0.262-0.073-0.521-0.073-0.775   c0-0.199,0.033-0.419,0.099-0.657c0.065-0.239,0.161-0.458,0.288-0.662c0.128-0.203,0.283-0.372,0.471-0.507   c0.187-0.136,0.404-0.204,0.652-0.204c0.277,0,0.51,0.065,0.7,0.194c0.189,0.131,0.342,0.296,0.458,0.496   c0.117,0.2,0.201,0.419,0.253,0.658c0.05,0.238,0.076,0.465,0.076,0.682v0.203H72.685z M74.523,41.551   c-0.035-0.161-0.089-0.314-0.162-0.455c-0.073-0.14-0.169-0.262-0.289-0.36c-0.119-0.1-0.262-0.151-0.43-0.151   c-0.157,0-0.295,0.048-0.414,0.144c-0.119,0.093-0.217,0.211-0.293,0.352c-0.075,0.142-0.134,0.292-0.174,0.451   c-0.04,0.16-0.062,0.307-0.062,0.442h1.876C74.576,41.855,74.559,41.714,74.523,41.551"/>
	<polygon clip-path="url(#SVGID_2_)" fill="#5C6970" points="81.52,44.319 81.52,41.737 79.286,41.737 79.286,44.319 78.693,44.319    78.693,38.902 79.286,38.902 79.286,41.248 81.52,41.248 81.52,38.902 82.112,38.902 82.112,44.319  "/>
	<path clip-path="url(#SVGID_2_)" fill="#5C6970" d="M86.612,42.176c0,0.222-0.029,0.465-0.086,0.728   c-0.059,0.262-0.147,0.506-0.272,0.729c-0.124,0.226-0.291,0.413-0.496,0.563c-0.206,0.147-0.458,0.223-0.755,0.223   c-0.308,0-0.566-0.075-0.774-0.223c-0.209-0.149-0.373-0.335-0.496-0.556c-0.122-0.225-0.208-0.467-0.259-0.729   c-0.053-0.263-0.077-0.508-0.077-0.735c0-0.185,0.028-0.392,0.089-0.624c0.059-0.233,0.154-0.454,0.283-0.662   c0.131-0.209,0.297-0.386,0.5-0.528c0.202-0.143,0.447-0.216,0.734-0.216c0.302,0,0.558,0.071,0.765,0.212   c0.204,0.14,0.37,0.313,0.493,0.519c0.125,0.207,0.216,0.427,0.27,0.662C86.585,41.775,86.612,41.986,86.612,42.176 M86.026,42.176   c0-0.136-0.017-0.291-0.049-0.472c-0.032-0.178-0.09-0.348-0.171-0.511c-0.079-0.163-0.186-0.3-0.316-0.414   c-0.129-0.113-0.292-0.17-0.487-0.17c-0.188,0-0.349,0.053-0.479,0.163c-0.13,0.106-0.235,0.241-0.316,0.4   c-0.082,0.16-0.14,0.33-0.175,0.512s-0.053,0.345-0.053,0.491c0,0.162,0.015,0.348,0.045,0.553   c0.029,0.206,0.082,0.398,0.159,0.582c0.073,0.18,0.179,0.333,0.311,0.458c0.133,0.123,0.302,0.185,0.508,0.185   c0.201,0,0.368-0.062,0.5-0.185c0.131-0.125,0.238-0.278,0.316-0.458c0.079-0.184,0.133-0.376,0.162-0.582   C86.011,42.523,86.026,42.338,86.026,42.176"/>
	<path clip-path="url(#SVGID_2_)" fill="#5C6970" d="M90.148,44.198c-0.068,0.032-0.152,0.063-0.253,0.097   c-0.101,0.032-0.211,0.062-0.336,0.086s-0.255,0.038-0.391,0.038c-0.292,0-0.541-0.067-0.742-0.198   c-0.203-0.127-0.367-0.298-0.492-0.509c-0.124-0.212-0.214-0.452-0.271-0.72c-0.057-0.269-0.086-0.54-0.086-0.817   c0-0.227,0.038-0.46,0.114-0.701s0.182-0.459,0.321-0.654c0.138-0.193,0.305-0.356,0.503-0.483c0.196-0.127,0.421-0.19,0.67-0.19   c0.119,0,0.234,0.012,0.349,0.033c0.115,0.022,0.216,0.048,0.304,0.077c0.091,0.029,0.166,0.059,0.229,0.089   c0.062,0.03,0.102,0.052,0.118,0.069l-0.171,0.471c-0.016-0.017-0.054-0.039-0.114-0.069c-0.06-0.029-0.129-0.063-0.21-0.093   c-0.081-0.033-0.167-0.06-0.256-0.082c-0.09-0.021-0.172-0.031-0.248-0.031c-0.163,0-0.309,0.048-0.436,0.144   c-0.127,0.099-0.232,0.226-0.319,0.378c-0.088,0.156-0.153,0.325-0.199,0.509c-0.046,0.185-0.068,0.364-0.068,0.535   c0,0.212,0.019,0.425,0.057,0.639c0.037,0.214,0.098,0.404,0.183,0.571c0.084,0.168,0.191,0.306,0.324,0.411   c0.134,0.105,0.291,0.157,0.476,0.157c0.087,0,0.175-0.01,0.268-0.03c0.093-0.022,0.18-0.049,0.264-0.082   c0.084-0.032,0.16-0.066,0.227-0.102c0.069-0.035,0.119-0.064,0.151-0.093l0.17,0.479C90.259,44.142,90.214,44.166,90.148,44.198"/>
	<path clip-path="url(#SVGID_2_)" fill="#5C6970" d="M93.66,44.319v-2.736c0-0.108-0.019-0.219-0.053-0.337   c-0.035-0.116-0.086-0.222-0.149-0.317c-0.066-0.096-0.149-0.171-0.249-0.23s-0.215-0.089-0.345-0.089   c-0.129,0-0.253,0.031-0.369,0.093s-0.219,0.135-0.31,0.217c-0.09,0.086-0.16,0.172-0.215,0.258   c-0.054,0.086-0.084,0.156-0.089,0.204v2.938h-0.561v-5.758h0.561v2.25c0.011-0.031,0.045-0.085,0.102-0.158   c0.057-0.072,0.133-0.147,0.227-0.224c0.095-0.076,0.204-0.141,0.325-0.199c0.122-0.056,0.253-0.086,0.394-0.086   c0.217,0,0.407,0.041,0.569,0.119s0.297,0.182,0.401,0.313c0.106,0.129,0.186,0.276,0.239,0.441   c0.056,0.165,0.083,0.332,0.083,0.499v2.802H93.66z"/>
	<path clip-path="url(#SVGID_2_)" fill="#5C6970" d="M97.915,43.207c0,0.174-0.035,0.334-0.104,0.483   c-0.071,0.15-0.167,0.277-0.29,0.386c-0.122,0.109-0.264,0.193-0.429,0.251c-0.166,0.06-0.341,0.091-0.525,0.091   c-0.162,0-0.312-0.012-0.449-0.033c-0.14-0.022-0.263-0.05-0.37-0.08c-0.109-0.033-0.202-0.066-0.28-0.099   c-0.079-0.032-0.139-0.059-0.183-0.081l0.171-0.454c0.026,0.017,0.081,0.043,0.162,0.076c0.08,0.036,0.175,0.069,0.279,0.102   c0.106,0.033,0.219,0.062,0.337,0.09c0.119,0.027,0.228,0.041,0.325,0.041c0.206,0,0.386-0.061,0.541-0.18   c0.154-0.117,0.231-0.284,0.231-0.495c0-0.118-0.047-0.227-0.144-0.32c-0.094-0.095-0.213-0.188-0.356-0.275   c-0.144-0.091-0.299-0.18-0.467-0.27c-0.167-0.089-0.324-0.185-0.468-0.287c-0.142-0.104-0.262-0.218-0.356-0.342   c-0.095-0.125-0.143-0.271-0.143-0.438c0-0.18,0.035-0.344,0.106-0.496c0.07-0.151,0.166-0.279,0.288-0.39   c0.121-0.107,0.261-0.191,0.419-0.251c0.156-0.06,0.324-0.09,0.503-0.09c0.107,0,0.218,0.011,0.329,0.034   c0.11,0.021,0.212,0.045,0.304,0.072c0.091,0.026,0.17,0.055,0.235,0.084c0.065,0.03,0.11,0.057,0.139,0.078l-0.171,0.445   c-0.022-0.021-0.064-0.048-0.125-0.08c-0.063-0.032-0.135-0.063-0.216-0.094c-0.082-0.029-0.166-0.054-0.256-0.076   c-0.089-0.021-0.173-0.033-0.247-0.033c-0.206,0-0.382,0.064-0.528,0.19c-0.146,0.127-0.22,0.297-0.22,0.508   c0,0.119,0.049,0.23,0.146,0.333c0.098,0.104,0.218,0.201,0.36,0.292c0.144,0.092,0.301,0.183,0.472,0.273   c0.17,0.09,0.328,0.185,0.471,0.287c0.144,0.104,0.265,0.216,0.361,0.337C97.867,42.919,97.915,43.056,97.915,43.207"/>
	<path clip-path="url(#SVGID_2_)" fill="#5C6970" d="M101.403,44.198c-0.067,0.032-0.151,0.063-0.251,0.097   c-0.103,0.032-0.213,0.062-0.338,0.086c-0.124,0.024-0.255,0.038-0.391,0.038c-0.292,0-0.54-0.067-0.741-0.198   c-0.204-0.127-0.367-0.298-0.491-0.509c-0.126-0.212-0.216-0.452-0.273-0.72c-0.056-0.269-0.084-0.54-0.084-0.817   c0-0.227,0.038-0.46,0.113-0.701s0.182-0.459,0.32-0.654c0.139-0.193,0.307-0.356,0.504-0.483c0.196-0.127,0.42-0.19,0.67-0.19   c0.118,0,0.234,0.012,0.35,0.033c0.113,0.022,0.215,0.048,0.304,0.077s0.165,0.059,0.228,0.089c0.061,0.03,0.101,0.052,0.118,0.069   l-0.171,0.471c-0.017-0.017-0.055-0.039-0.113-0.069c-0.061-0.029-0.131-0.063-0.211-0.093c-0.082-0.033-0.166-0.06-0.257-0.082   c-0.089-0.021-0.172-0.031-0.247-0.031c-0.163,0-0.309,0.048-0.435,0.144c-0.128,0.099-0.234,0.226-0.32,0.378   c-0.087,0.156-0.153,0.325-0.2,0.509c-0.045,0.185-0.068,0.364-0.068,0.535c0,0.212,0.02,0.425,0.057,0.639   c0.036,0.214,0.1,0.404,0.183,0.571c0.084,0.168,0.192,0.306,0.325,0.411s0.291,0.157,0.476,0.157c0.086,0,0.175-0.01,0.269-0.03   c0.092-0.022,0.179-0.049,0.263-0.082c0.083-0.032,0.16-0.066,0.227-0.102c0.068-0.035,0.119-0.064,0.15-0.093l0.172,0.479   C101.515,44.142,101.47,44.166,101.403,44.198"/>
	<path clip-path="url(#SVGID_2_)" fill="#5C6970" d="M104.916,44.319v-2.736c0-0.108-0.019-0.219-0.054-0.337   c-0.034-0.116-0.086-0.222-0.149-0.317c-0.065-0.096-0.147-0.171-0.248-0.23c-0.1-0.06-0.214-0.089-0.346-0.089   c-0.129,0-0.252,0.031-0.368,0.093c-0.117,0.062-0.219,0.135-0.31,0.217c-0.09,0.086-0.16,0.172-0.216,0.258   c-0.053,0.086-0.084,0.156-0.088,0.204v2.938h-0.562v-5.758h0.562v2.25c0.01-0.031,0.044-0.085,0.101-0.158   c0.058-0.072,0.133-0.147,0.229-0.224c0.094-0.076,0.202-0.141,0.324-0.199c0.122-0.056,0.253-0.086,0.395-0.086   c0.215,0,0.406,0.041,0.568,0.119s0.296,0.182,0.4,0.313c0.106,0.129,0.188,0.276,0.241,0.441c0.053,0.165,0.081,0.332,0.081,0.499   v2.802H104.916z"/>
	<path clip-path="url(#SVGID_2_)" fill="#5C6970" d="M109.154,44.319v-0.576c-0.018,0.027-0.053,0.079-0.109,0.153   c-0.057,0.076-0.131,0.152-0.223,0.229c-0.093,0.075-0.199,0.144-0.32,0.203c-0.123,0.059-0.257,0.091-0.402,0.091   c-0.223,0-0.413-0.04-0.573-0.12c-0.159-0.078-0.292-0.181-0.395-0.309c-0.103-0.127-0.178-0.274-0.226-0.443   c-0.049-0.168-0.074-0.339-0.074-0.519v-2.784h0.561v2.736c0,0.123,0.015,0.244,0.045,0.359c0.028,0.119,0.072,0.22,0.134,0.311   c0.059,0.089,0.138,0.162,0.235,0.22c0.098,0.055,0.218,0.084,0.357,0.084c0.13,0,0.252-0.033,0.365-0.102   c0.113-0.066,0.214-0.145,0.302-0.231c0.086-0.086,0.154-0.173,0.206-0.26c0.052-0.086,0.079-0.147,0.085-0.179v-2.938h0.56v4.075   H109.154z"/>
	<path clip-path="url(#SVGID_2_)" fill="#5C6970" d="M112.151,44.376c-0.099,0.028-0.188,0.042-0.269,0.042   c-0.163,0-0.296-0.027-0.396-0.083c-0.105-0.053-0.188-0.125-0.249-0.214c-0.063-0.089-0.105-0.194-0.129-0.312   c-0.025-0.121-0.038-0.247-0.038-0.374v-4.874h0.561v4.825c0,0.168,0.022,0.302,0.066,0.405c0.043,0.104,0.115,0.153,0.22,0.153   c0.037,0,0.086-0.013,0.145-0.04c0.061-0.026,0.101-0.053,0.122-0.081l0.171,0.471C112.316,44.321,112.25,44.35,112.151,44.376"/>
	<path clip-path="url(#SVGID_2_)" fill="#5C6970" d="M113.564,42.379c0,0.163,0.021,0.335,0.062,0.521   c0.04,0.183,0.104,0.355,0.19,0.515c0.086,0.16,0.197,0.293,0.332,0.399c0.136,0.104,0.298,0.157,0.487,0.157   c0.114,0,0.227-0.013,0.337-0.037c0.112-0.024,0.214-0.053,0.31-0.085c0.095-0.031,0.177-0.064,0.247-0.102   c0.069-0.034,0.127-0.065,0.17-0.092l0.171,0.47c-0.031,0.017-0.087,0.04-0.167,0.074c-0.078,0.031-0.172,0.063-0.283,0.096   c-0.111,0.033-0.235,0.063-0.373,0.085c-0.139,0.025-0.284,0.038-0.435,0.038c-0.32,0-0.583-0.07-0.788-0.208   c-0.206-0.138-0.369-0.316-0.492-0.536c-0.122-0.22-0.206-0.461-0.254-0.723c-0.049-0.262-0.075-0.521-0.075-0.775   c0-0.199,0.034-0.419,0.099-0.657c0.064-0.239,0.161-0.458,0.287-0.662c0.128-0.203,0.284-0.372,0.473-0.507   c0.185-0.136,0.404-0.204,0.653-0.204c0.276,0,0.509,0.065,0.698,0.194c0.189,0.131,0.341,0.296,0.459,0.496   c0.116,0.2,0.2,0.419,0.251,0.658c0.052,0.238,0.078,0.465,0.078,0.682v0.203H113.564z M115.404,41.551   c-0.035-0.161-0.091-0.314-0.163-0.455c-0.072-0.14-0.169-0.262-0.287-0.36c-0.12-0.1-0.264-0.151-0.432-0.151   c-0.156,0-0.295,0.048-0.414,0.144c-0.119,0.093-0.216,0.211-0.292,0.352c-0.077,0.142-0.134,0.292-0.175,0.451   c-0.041,0.16-0.061,0.307-0.061,0.442h1.876C115.457,41.855,115.439,41.714,115.404,41.551"/>
	<path clip-path="url(#SVGID_2_)" fill="#E2001A" d="M73.055,22.535c0,1.602-0.229,3.084-0.688,4.45   c-0.46,1.366-1.106,2.545-1.939,3.537c-0.831,0.992-1.846,1.765-3.044,2.319c-1.196,0.556-2.532,0.832-4.003,0.832H58.03   c-0.236,0-0.423-0.074-0.56-0.222c-0.14-0.15-0.208-0.343-0.208-0.576v-19.75c0-0.235,0.068-0.427,0.208-0.575   c0.139-0.15,0.324-0.226,0.56-0.226h5.318c1.452,0,2.776,0.246,3.97,0.738c1.199,0.49,2.219,1.183,3.062,2.08   c0.844,0.898,1.501,1.969,1.97,3.219C72.82,19.606,73.055,21,73.055,22.535 M69.172,22.535c0-1.024-0.129-1.981-0.384-2.867   c-0.259-0.887-0.639-1.654-1.141-2.293c-0.5-0.641-1.105-1.149-1.81-1.523c-0.706-0.373-1.507-0.56-2.406-0.56h-2.403v15.417h2.212   c0.896,0,1.708-0.203,2.436-0.609c0.728-0.405,1.351-0.972,1.876-1.697c0.522-0.728,0.924-1.588,1.202-2.58   C69.031,24.826,69.172,23.731,69.172,22.535"/>
	<path clip-path="url(#SVGID_2_)" fill="#E2001A" d="M91.376,33.451c-0.148,0.147-0.339,0.222-0.573,0.222H88.6   c-0.235,0-0.421-0.074-0.557-0.224c-0.138-0.148-0.209-0.341-0.209-0.575v-8.781h-7.392v8.781c0,0.234-0.073,0.427-0.224,0.575   c-0.146,0.149-0.341,0.224-0.573,0.224h-2.202c-0.234,0-0.42-0.074-0.559-0.222c-0.138-0.15-0.208-0.343-0.208-0.575v-19.75   c0-0.236,0.07-0.427,0.208-0.575c0.139-0.15,0.324-0.226,0.559-0.226h2.202c0.232,0,0.427,0.075,0.573,0.226   c0.15,0.148,0.224,0.339,0.224,0.575v7.837h7.392v-7.837c0-0.236,0.071-0.427,0.209-0.575c0.136-0.15,0.321-0.226,0.557-0.226   h2.203c0.234,0,0.425,0.075,0.573,0.226c0.148,0.148,0.226,0.339,0.226,0.575v19.75C91.602,33.108,91.524,33.301,91.376,33.451"/>
	<path clip-path="url(#SVGID_2_)" fill="#5C6970" d="M108.938,27.528c0,0.959-0.194,1.822-0.578,2.592   c-0.384,0.768-0.911,1.414-1.586,1.938c-0.67,0.521-1.454,0.922-2.351,1.201c-0.896,0.275-1.847,0.413-2.848,0.413h-4.9   c-0.148,0-0.277-0.054-0.383-0.157c-0.107-0.107-0.161-0.236-0.161-0.384V12.838c0-0.15,0.054-0.272,0.161-0.37   c0.105-0.096,0.234-0.144,0.383-0.144h5.287c0.834,0,1.64,0.107,2.419,0.319c0.778,0.213,1.464,0.542,2.051,0.978   c0.59,0.437,1.056,0.992,1.41,1.666c0.354,0.669,0.527,1.464,0.527,2.383c0,0.574-0.129,1.125-0.385,1.648   c-0.256,0.521-0.577,0.991-0.962,1.406c-0.386,0.417-0.809,0.768-1.269,1.055c-0.461,0.29-0.904,0.498-1.331,0.625   c0.595,0.107,1.168,0.304,1.711,0.593c0.544,0.289,1.024,0.655,1.441,1.104c0.414,0.447,0.745,0.964,0.991,1.553   C108.813,26.24,108.938,26.866,108.938,27.528 M105.994,17.759c0-1.087-0.374-1.953-1.121-2.591   c-0.75-0.64-1.722-0.958-2.918-0.958h-3.492v7.389h3.396c0.534,0,1.046-0.094,1.541-0.287c0.489-0.193,0.926-0.459,1.312-0.801   c0.385-0.34,0.693-0.746,0.931-1.215C105.876,18.827,105.994,18.314,105.994,17.759 M106.513,27.436   c0-1.238-0.423-2.215-1.267-2.928c-0.845-0.716-1.94-1.073-3.288-1.073h-3.495v8.358h3.495c0.619,0,1.208-0.108,1.764-0.323   c0.556-0.212,1.043-0.511,1.459-0.895c0.418-0.385,0.743-0.844,0.977-1.375C106.396,28.666,106.513,28.078,106.513,27.436"/>
	<path clip-path="url(#SVGID_2_)" fill="#5C6970" d="M127.895,33.13c-0.042,0.148-0.117,0.278-0.225,0.386   c-0.107,0.104-0.233,0.157-0.384,0.157h-1.602c-0.148,0-0.283-0.054-0.401-0.157c-0.117-0.107-0.195-0.237-0.24-0.386   l-3.537-17.894l-3.479,17.894c-0.042,0.148-0.122,0.278-0.238,0.386c-0.117,0.104-0.253,0.157-0.401,0.157h-1.601   c-0.149,0-0.282-0.054-0.4-0.157c-0.119-0.107-0.197-0.237-0.24-0.386l-4.109-20.294c-0.042-0.149-0.016-0.273,0.08-0.368   c0.097-0.095,0.22-0.144,0.37-0.144h1.344c0.34,0,0.554,0.17,0.64,0.512l3.212,17.925l3.478-17.925   c0.084-0.341,0.299-0.512,0.64-0.512h1.601c0.323,0,0.523,0.17,0.609,0.512l3.507,17.925l3.182-17.925   c0.085-0.341,0.288-0.512,0.607-0.512h1.282c0.147,0,0.263,0.048,0.353,0.144c0.085,0.095,0.107,0.219,0.063,0.368L127.895,33.13z"/>
</g>
</svg>